<?xml version="1.0" encoding="UTF-8" standalone="no"?>
<svg xmlns:dc="http://purl.org/dc/elements/1.1/" xmlns:cc="http://web.resource.org/cc/" xmlns:rdf="http://www.w3.org/1999/02/22-rdf-syntax-ns#" xmlns="http://www.w3.org/2000/svg" xmlns:sodipodi="http://sodipodi.sourceforge.net/DTD/sodipodi-0.dtd" xmlns:inkscape="http://www.inkscape.org/namespaces/inkscape" version="1.0" width="735" height="455" viewBox="0 20 630 390" sodipodi:version="0.32" inkscape:version="0.45.1" sodipodi:docname="Asymmetric_(PSF).svg" sodipodi:docbase="/home/ignoramus/dcc/commons" inkscape:output_extension="org.inkscape.output.svg.inkscape">
  <metadata>
    <rdf:RDF>
      <cc:Work rdf:about="">
        <dc:format>image/svg+xml</dc:format>
        <dc:type rdf:resource="http://purl.org/dc/dcmitype/StillImage"/>
      </cc:Work>
    </rdf:RDF>
  </metadata>
  <g transform="translate(-45,-176.00504)" id="layer1">
    <path d="M 44.642857,530.00504 L 673.21429,529.6479" style="fill:none;fill-rule:evenodd;stroke:#000000;stroke-width:4;stroke-linecap:butt;stroke-linejoin:miter;stroke-miterlimit:4;stroke-dasharray:none;stroke-opacity:1" id="path2170"/>
    <path d="M 183.28358,528.53892 L 183.27359,219.15143" style="fill:none;fill-rule:evenodd;stroke:#000000;stroke-width:4.00269556;stroke-linecap:butt;stroke-linejoin:miter;stroke-miterlimit:4;stroke-dasharray:none;stroke-opacity:1" id="path3143" sodipodi:nodetypes="cc"/>
    <path d="M 530.96659,527.70084 L 530.95436,221.32023" style="fill:none;fill-rule:evenodd;stroke:#000000;stroke-width:4.00045013;stroke-linecap:butt;stroke-linejoin:miter;stroke-miterlimit:4;stroke-dasharray:none;stroke-opacity:1" id="path4114"/>
    <switch style="font-size:28px;font-style:normal;font-weight:normal;fill:#000000;fill-opacity:1;stroke:none;stroke-width:1px;stroke-linecap:butt;stroke-linejoin:miter;stroke-opacity:1;font-family:Bitstream Vera Sans"><text style="font-size:28px;font-style:normal;font-weight:normal;fill:#000000;fill-opacity:1;stroke:none;stroke-width:1px;stroke-linecap:butt;stroke-linejoin:miter;stroke-opacity:1;font-family:Bitstream Vera Sans" id="text4120-fr" xml:space="preserve" systemLanguage="fr"><tspan x="88.436562" y="566.74994" style="font-size:32px" id="tspan4122-fr">symétrique</tspan></text><text style="font-size:28px;font-style:normal;font-weight:normal;fill:#000000;fill-opacity:1;stroke:none;stroke-width:1px;stroke-linecap:butt;stroke-linejoin:miter;stroke-opacity:1;font-family:Bitstream Vera Sans" id="text4120-de" xml:space="preserve" systemLanguage="de"><tspan x="88.436562" y="566.74994" style="font-size:32px" id="tspan4122-de">symmetrisch</tspan></text><text style="font-size:28px;font-style:normal;font-weight:normal;fill:#000000;fill-opacity:1;stroke:none;stroke-width:1px;stroke-linecap:butt;stroke-linejoin:miter;stroke-opacity:1;font-family:Bitstream Vera Sans" id="text4120" xml:space="preserve"><tspan x="88.436562" y="566.74994" style="font-size:32px" id="tspan4122">SYMMETRIC</tspan></text></switch>
    <switch style="font-size:32px;font-style:normal;font-weight:normal;fill:#000000;fill-opacity:1;stroke:none;stroke-width:1px;stroke-linecap:butt;stroke-linejoin:miter;stroke-opacity:1;font-family:Bitstream Vera Sans"><text style="font-size:32px;font-style:normal;font-weight:normal;fill:#000000;fill-opacity:1;stroke:none;stroke-width:1px;stroke-linecap:butt;stroke-linejoin:miter;stroke-opacity:1;font-family:Bitstream Vera Sans" id="text4124-fr" xml:space="preserve" systemLanguage="fr"><tspan x="427.84781" y="566.74994" id="tspan4126-fr">asymétrique</tspan></text><text style="font-size:32px;font-style:normal;font-weight:normal;fill:#000000;fill-opacity:1;stroke:none;stroke-width:1px;stroke-linecap:butt;stroke-linejoin:miter;stroke-opacity:1;font-family:Bitstream Vera Sans" id="text4124-de" xml:space="preserve" systemLanguage="de"><tspan x="427.84781" y="566.74994" id="tspan4126-de">asymmetrisch</tspan></text><text style="font-size:32px;font-style:normal;font-weight:normal;fill:#000000;fill-opacity:1;stroke:none;stroke-width:1px;stroke-linecap:butt;stroke-linejoin:miter;stroke-opacity:1;font-family:Bitstream Vera Sans" id="text4124" xml:space="preserve"><tspan x="427.84781" y="566.74994" id="tspan4126">ASYMMETRIC</tspan></text></switch>
    <path d="M 444.84593,354.7468 C 455.83134,340.22586 464.79644,292.24361 464.03883,275.44982 C 450.14923,284.66746 443.93706,296.48383 411.13209,291.36344 C 378.37969,286.25126 366.85892,266.45146 359.78019,244.38392 C 352.80526,222.63995 359.82383,207.92279 371.90945,190.48868 C 383.82841,173.29499 394.55123,177.1475 394.55123,177.1475 C 394.55123,177.1475 373.63017,166.47962 373.88271,147.53926 C 370.72598,126.9574 378.30213,109.27973 396.98995,100.31463 C 413.07565,90.189347 431.33514,101.32478 431.33514,101.32478 C 431.33514,101.32478 427.82022,77.838732 441.05787,63.570327 C 454.29551,49.301922 462.44117,45.166611 484.66453,45.008774 C 506.88789,44.850937 516.8934,50.24894 530.33009,62.433905 C 543.64052,74.492601 549.01791,90.718177 549.01791,90.718177 C 549.01791,90.718177 597.0915,93.151927 609.04584,139.67187 C 621.01132,186.23515 591.00405,205.33163 578.9629,215.7666 C 567.01057,226.12461 540.8194,224.68594 540.8194,224.68594 C 540.8194,224.68594 554.74334,239.53184 552.97557,261.37639 C 551.2078,283.22094 544.25311,295.10014 533.80435,305.29637 C 523.35558,315.4926 518.33452,319.64399 518.33452,319.64399 L 517.70318,353.86291" transform="translate(45,176.00504)" style="fill:none;fill-rule:evenodd;stroke:#000000;stroke-width:4;stroke-linecap:butt;stroke-linejoin:miter;stroke-miterlimit:4;stroke-dasharray:none;stroke-opacity:1" id="path4130"/>
    <path d="M 185.71429,353.78571 C 185.71429,353.78571 171.51785,342.71429 167.67857,314.85714 C 181.51785,306.82143 192.41072,296.82143 198.21429,274.5 C 204.01786,252.17857 188.57143,226.28571 188.57143,226.28571 C 188.57143,226.28571 217.1875,229.72321 236.78571,209.5 C 256.56315,189.09184 265.49106,166.0625 258.39285,137.17857 C 251.27382,108.20992 228.21428,91.285714 201.60714,89.321428 C 196.78572,67.535714 177.48852,43.414845 141.07143,41.642857 C 104.83292,39.870869 79.82143,67.446428 75.089287,90.950892 C 54.107143,88.383931 27.385609,110.11344 18.928571,137.71428 C 10.571627,164.98845 19.017858,187.08929 39.285715,208.42858 C 59.553571,229.76786 87.857143,225.57143 87.857143,225.57143 C 87.857143,225.57143 73.214285,252 79.285714,274.5 C 85.357143,297 92.410717,303.07143 112.14286,315.57143 C 112.05357,340.92857 95.357143,353.07143 95.357143,353.07143" transform="translate(45,176.00504)" style="fill:none;fill-rule:evenodd;stroke:#000000;stroke-width:4;stroke-linecap:butt;stroke-linejoin:miter;stroke-miterlimit:4;stroke-dasharray:none;stroke-opacity:1" id="path5101"/>
  </g>
</svg>
