<?xml version="1.0" encoding="utf-8"?>
<!-- Svg Vector Icons : http://www.onlinewebfonts.com/icon -->
<!DOCTYPE svg PUBLIC "-//W3C//DTD SVG 1.1//EN" "http://www.w3.org/Graphics/SVG/1.1/DTD/svg11.dtd">
<svg version="1.1" xmlns="http://www.w3.org/2000/svg" xmlns:xlink="http://www.w3.org/1999/xlink" x="0px" y="0px" viewBox="0 0 1000 1000" enable-background="new 0 0 1000 1000" xml:space="preserve">
<metadata> Svg Vector Icons : http://www.onlinewebfonts.com/icon </metadata>
<g><g><g><g><g><path d="M500,414c-47.3,0-85.7,38.5-85.7,85.7c0,47.3,38.5,85.7,85.7,85.7c47.3,0,85.7-38.5,85.7-85.7C585.7,452.5,547.3,414,500,414z"/></g></g><g><path d="M990,510.3c0.7-29.7-12.1-58.3-37.9-84.9c0,0,0-0.1,0-0.1c0-25.3-20.6-45.9-45.9-45.9c-4.3,0-8.5,0.6-12.7,1.8c-15.8-9.1-33.2-17.6-51.6-25.4c-12.3-5.1-26.2-10.3-42.4-15.6c34.5-124.8,21.9-216.8-35.1-253.3c-59.7-38.3-158.4-4.5-264.4,91.6c-105.9-96.1-204.6-130-264.4-91.6c-36.2,23.2-54.9,69.1-54.2,133.1c-11.3,8.6-18.2,22-18.2,36.4c0,18.2,10.8,34.4,27,41.7c2,9.6,4.4,20.1,7.5,31.6C79.6,365.7,11.5,423.4,10,489.1c-1.3,59.1,51.3,114,148.1,154.4c12.4,5.2,26.4,10.3,42.6,15.7c-4.6,16.3-8.1,30.8-10.7,44.1c-20.4,102.9-4.2,177.2,45.6,209.1c60,38.3,158.5,4.4,264.4-91.7c76.5,69.5,149.6,107.6,206.5,107.6c21.8,0,41.2-5.4,57.8-16c49.8-31.9,66-106.2,45.6-209.1c-2-10.1-4.6-21.2-7.9-33.7C920.3,633.9,988.5,576.2,990,510.3z M260.5,873.5c-31.7-20.3-41.1-80.6-25.2-161.1c2.3-11.8,5.5-24.9,9.7-39.7c44,11.7,92.1,20.6,143.3,26.3c25.4,32.6,51.6,62.7,78.1,89.7C381.1,865.5,300.7,899.2,260.5,873.5z M260.5,126c40.1-25.5,120.6,8,206,84.9c-25.4,25.8-50.5,54.4-74.7,85.2c-53.2,3.8-103.2,11.1-148.9,21.7c-2.1-8.3-4-16.5-5.8-25c11.2-8.6,18-22,18-36.3c0-18.3-10.9-34.6-27.1-41.9C228.1,181.9,234.2,142.8,260.5,126z M258.6,628.4c8.8-25.4,19.3-51.5,31.3-77.8c11.6,20.5,23.7,40.8,36.3,60.5c7.6,11.9,15.6,23.9,24.1,36.1C317.7,642.2,287,635.9,258.6,628.4z M326.2,388.4c-12.7,19.8-24.8,39.9-36.2,60.2c-13-28.8-24.3-57.5-33.7-85.7c30.8-7.1,63.6-12.6,98.1-16.6C344.7,360.2,335.2,374.3,326.2,388.4z M315.1,499.6c15.6-29.8,32.4-58.8,50-86.3c15.2-23.8,32.2-48,50.6-72.3c29-1.6,58.2-2.1,87.8-1.4c27.9,0.6,55.9,2.2,83.3,4.8c17.4,23.2,33.6,46.3,48.1,68.9c17.6,27.5,34.4,56.5,50,86.3c-15.8,30.3-32.6,59.4-50,86.6c-15.3,23.9-32.3,48.1-50.6,72.3c-29,1.6-58.1,2.1-87.8,1.4c-27.8-0.6-55.8-2.2-83.3-4.8c-17.4-23.2-33.6-46.4-48-68.9C347.7,559,330.9,529.9,315.1,499.6z M645.5,653.2c9.8-14,19.3-28.1,28.3-42.1c12.6-19.7,24.8-40,36.3-60.5c13.2,29,24.6,57.7,34,85.9C713.2,643.7,680.2,649.3,645.5,653.2z M673.8,388.4c-7.7-12-15.7-24-24.1-36.1c32.3,5,62.9,11.2,91.4,18.7c-8.8,25.4-19.2,51.4-31.1,77.5C698.6,428.4,686.5,408.2,673.8,388.4z M754.6,326.7c-44-11.7-92-20.5-143-26.2c-25.4-32.6-51.6-62.7-78.1-89.6c85.4-76.9,166-110.4,206-84.9C777.2,150.2,782.7,224.8,754.6,326.7z M504.5,293.3c-8.9-0.2-17.8-0.3-26.6-0.3c-8,0-15.9,0.1-23.8,0.2c15.1-17.7,30.5-34.5,46-50.2c16.1,16.4,32.1,33.8,47.6,52.1C532.4,294.3,518.1,293.7,504.5,293.3z M210.8,374.9c13.1,39.6,30.7,81.5,52.3,125c-19.7,39.7-36.1,78.4-48.7,115.2c-14.6-4.8-27.2-9.5-38.4-14.1c-75.8-31.7-120.5-73-119.7-110.7C57.2,446.7,114.7,404,210.8,374.9z M495.5,706.1c17,0.4,33.9,0.4,50.4,0c-15.1,17.7-30.5,34.5-46,50.2c-16.1-16.3-32-33.7-47.6-52.1C467.8,705.2,481.9,705.8,495.5,706.1z M608.2,703.3c53.2-3.8,103.3-11.1,149.2-21.8c3,11.4,5.4,21.6,7.2,30.8c16,80.5,6.6,140.8-25.1,161.1c-40.1,25.7-120.6-8-206-84.9C558.8,762.8,583.9,734.3,608.2,703.3z M788.8,624.7c-13.2-40.2-30.7-82.1-51.9-124.9c19.7-39.5,36.1-78.2,48.9-115.3c14.7,4.9,27.1,9.4,38.2,14.1c13.1,5.5,25.6,11.4,37.2,17.7c-0.6,3-1,6-1,9.1c0,25.3,20.6,45.9,45.9,45.9c7.1,0,14.1-1.7,20.3-4.8c11.8,14.6,17.6,29,17.3,42.9C942.8,552.8,885.2,595.5,788.8,624.7z"/></g></g></g><g></g><g></g><g></g><g></g><g></g><g></g><g></g><g></g><g></g><g></g><g></g><g></g><g></g><g></g><g></g></g>
</svg>