<?xml version="1.0" encoding="iso-8859-1"?>
<!-- Generator: Adobe Illustrator 16.0.0, SVG Export Plug-In . SVG Version: 6.00 Build 0)  -->
<!DOCTYPE svg PUBLIC "-//W3C//DTD SVG 1.1//EN" "http://www.w3.org/Graphics/SVG/1.1/DTD/svg11.dtd">
<svg version="1.1" id="Capa_1" xmlns="http://www.w3.org/2000/svg" xmlns:xlink="http://www.w3.org/1999/xlink" x="0px" y="0px"
	 width="492.656px" height="492.656px" viewBox="0 0 492.656 492.656" style="enable-background:new 0 0 492.656 492.656;"
	 xml:space="preserve">
<g>
	<path d="M33.003,369.492c2.233,3.869,6.36,6.25,10.825,6.25c0.015,0,0.029,0,0.044,0l128.002-0.453l63.606,111.078
		c2.228,3.889,6.366,6.289,10.848,6.289c4.481,0,8.62-2.399,10.848-6.288l63.608-111.079l128,0.453c0.015,0,0.029,0,0.044,0
		c4.465,0,8.592-2.382,10.825-6.25c2.241-3.881,2.231-8.665-0.022-12.538l-64.392-110.626l64.392-110.626
		c2.255-3.873,2.265-8.657,0.022-12.538c-2.233-3.869-6.36-6.25-10.825-6.25c-0.015,0-0.029,0-0.044,0l-128,0.453L257.176,6.288
		C254.948,2.399,250.81,0,246.328,0c-4.482,0-8.62,2.399-10.848,6.289l-63.606,111.079l-128.002-0.453c-0.015,0-0.029,0-0.044,0
		c-4.465,0-8.592,2.382-10.825,6.25c-2.241,3.881-2.232,8.665,0.022,12.538l64.392,110.625L33.025,356.954
		C30.77,360.827,30.762,365.611,33.003,369.492z M122.683,252.616c2.263-3.888,2.263-8.689,0-12.576l-57.071-98.049l113.449,0.402
		c0.015,0,0.029,0,0.044,0c4.48,0,8.62-2.398,10.848-6.289l56.375-98.449l56.377,98.45c2.229,3.89,6.367,6.288,10.848,6.288
		c0.016,0,0.029,0,0.044,0l113.447-0.402l-57.071,98.049c-2.263,3.887-2.263,8.688,0,12.576l57.071,98.049l-113.447-0.401
		c-0.015,0-0.028,0-0.044,0c-4.479,0-8.619,2.398-10.848,6.289l-56.377,98.449l-56.375-98.449
		c-2.228-3.892-6.367-6.289-10.848-6.289c-0.015,0-0.029,0-0.044,0l-113.449,0.4L122.683,252.616z"/>
</g>
<g>
</g>
<g>
</g>
<g>
</g>
<g>
</g>
<g>
</g>
<g>
</g>
<g>
</g>
<g>
</g>
<g>
</g>
<g>
</g>
<g>
</g>
<g>
</g>
<g>
</g>
<g>
</g>
<g>
</g>
</svg>
